<svg xmlns="http://www.w3.org/2000/svg" xmlns:xlink="http://www.w3.org/1999/xlink" version="1.1" width="960pt" height="540pt" viewBox="0 0 960 540">
<g id="layer_1" data-name="Background">
<path transform="matrix(1,0,0,-1,0,540)" d="M0 0H960V540H0Z" fill="#ffffff"/>
</g>
<path transform="matrix(1,0,0,-1,0,540)" d="M0 0H960V540H0Z" fill="#ffffff"/>
<text xml:space="preserve" transform="matrix(1 0 -0 1 0 540)" font-size="43.98" font-family="AptosDisplay"><tspan y="-455.705" x="73.44 96.419559 104.92969 133.64862 162.4995 175.57915 197.30527 218.48604 231.85596 241.09175 263.34565 282.65287 291.18498 304.5549 326.80879 348.5349 357.06703 367.4023 389.6562 398.892 412.26194 421.49775 443.03916 453.77027 462.30238 491.15327 513.715 548.8771 571.67636 594.2381 616.492 638.21817 660.47207 673.67489">2 &#x2013;Creating the Initial Components</tspan></text>
<path transform="matrix(1,0,0,-1,0,540)" d="M68.16 411.3H891.12V409.86H68.16Z" fill="#dddddd" fill-rule="evenodd"/>
<path transform="matrix(1,0,0,-1,0,540)" d="M66.24 410.22H213.78V418.86003H66.24Z" fill="#ffbd47" fill-rule="evenodd"/>
<text xml:space="preserve" transform="matrix(1 0 -0 1 0 540)" font-size="22.02" font-family="Aptos" font-weight="bold"><tspan y="-364.7653" x="73.44 89.22835 101.82379 113.9458 120.48574">Goal:</tspan></text>
<text xml:space="preserve" transform="matrix(1 0 -0 1 0 540)" font-size="22.02" font-family="Aptos"><tspan y="-335.01628" x="73.44 82.261219 94.38102 98.82025 104.58068 116.1632 127.86243 135.24353 147.35453 151.91268 163.61191 175.7229 188.08493 192.64308 197.92127 216.70214 229.06197 234.8224 246.40493 265.18577 276.76829 288.87928 296.01817 300.51905 313.84117 325.42369 337.1229 348.70323 355.84434 360.40248 372.10169 384.21269 396.5747 401.13285 408.39945 428.38038 438.94117 443.3804 455.07963 467.3822 474.5211 486.63209 498.2146 510.3256 517.4667 522.7471 534.20626 545.7271 552.8682 558.1464 570.26626 582.37728 586.7571 593.7771 605.8969 610.3978 621.9781 629.0575 640.64 652.1587 659.1809 670.7634 675.3216 681.98269 687.26309 696.9827 708.56527 713.1234 723.08309 728.36349 739.946 755.6661 766.34579">To learn and implement React and JWT authentication to create five views </tspan><tspan y="-311.25669" x="73.44 79.92049 91.50081 103.62061 122.401477 134.7613 146.88112 158.99213 170.57465 182.68564 189.77608 200.45578 206.93627 211.4944 223.19583 235.30683 247.66666 252.227 259.24699 271.3668 275.85887 281.13926 299.9201 312.27995 318.04039 329.6229 348.40156 359.98408 372.09507 379.23619 383.72825 397.04814 409.16795 421.28776 428.3672 438.92799 446.0691 452.7874 464.48884 476.84867 481.34074 488.36073 500.48054 504.9726 515.5312 522.6723 532.63198 538.3924 549.9749 554.5947 561.73587 573.84689 585.4294 589.98977 602.2901 612.9698 624.5523 631.9312 636.4916 641.772 653.883 660.903 672.48556 679.86666 686.1071 697.80636 709.3866 720.30636">(components) and to implement Bootstrap to style the user interface.</tspan></text>
<text xml:space="preserve" transform="matrix(1 0 -0 1 0 540)" font-size="22.02" font-family="Aptos" font-weight="bold"><tspan y="-264.7064" x="73.44 88.97952 101.75112 113.87093 120.41087 126.95081 139.18953 151.96114 162.9403 175.18123">Challenge:</tspan></text>
<text xml:space="preserve" transform="matrix(1 0 -0 1 0 540)" font-size="22.02" font-family="Aptos"><tspan y="-234.95737" x="73.44 79.20044 83.69913 95.81893 107.520359 119.87798 124.43613 136.13756 140.6957 152.8155 164.51474 171.59636 183.95619 188.51433 195.6488 200.93361 219.71227 231.29257 235.7318 246.95319 256.67283 263.8073 270.52784 282.22706 293.80958 300.94407 306.22886 318.34867 329.02836 333.52705 340.66154 352.78135 364.36167 368.86036 387.6412 399.521 409.48066 414.76545 426.34358 430.9017 443.26155 454.78239 461.86183 473.56105 478.11918 484.76924 491.85087 503.97068 522.7493 527.18856 534.323 546.4428 558.02096 562.57907 574.93887 586.63809 593.7197 605.29788 617.41769 624.5521 629.1102 640.69277 652.81259 671.5934 683.9532 696.073 708.1928 719.77316 731.89297 739.0274 745.32736 749.76657 767.16677 778.8682 784.153 796.2728 809.1766 814.46139 826.0417 840.62118 846.9211 851.3603 863.06179 875.1816 887.5414">I had a hard time extracting the movie data from the parent component, MainView, and </tspan><tspan y="-211.19779" x="73.44 85.799839 97.49906 108.178768 118.85847 124.143268 136.26308 146.94278 151.56258 156.84738 163.98186 168.4233 175.44107 187.56308 192.06177 199.19625 211.31606 222.89417 227.4523 244.85251 256.7323 266.69197 271.97676 283.55488 298.79493 310.49635 317.57579 329.9356 334.5554 345.2351 357.35493 361.91307 369.04756 381.16737 392.6882 399.8227 404.38084 409.66563 416.8001 421.23936 436.8405 448.96034 461.2585 467.01896 479.37879 483.87968 496.2395 501.5243 512.204 524.5638 530.32418 542.0234 551.9852 556.6028 568.9626 580.48348 587.56289 599.2621 603.8202 610.4702 617.5497 629.6695 648.4481 652.8895 668.7285 674.0133 681.14779 693.2676 698.55239 710.6722 715.17086 722.3053 734.4251 746.00546 750.5041 769.2849 781.16476 791.1243 796.4091 807.98947 812.54757 824.66738 837.02719 842.31198 853.8923 865.4748 872.60928">passing it to the MovieCard so that it would display data from within the movie object.</tspan></text>
<text xml:space="preserve" transform="matrix(1 0 -0 1 0 540)" font-size="22.02" font-family="Aptos" font-weight="bold"><tspan y="-164.6475" x="73.44 86.641 99.23644 105.77638 118.55679 126.351879 132.23122 144.82666 157.60707">Solution:</tspan></text>
<text xml:space="preserve" transform="matrix(1 0 -0 1 0 540)" font-size="22.02" font-family="Aptos"><tspan y="-134.89849" x="73.44 79.20043 83.69251 90.71249 102.83229 114.952098 125.69125 130.18334 141.76366 153.88347 166.18384 173.32492 184.00463 195.58715 206.26685 210.88665 218.02773 230.13874 237.21816 249.33797 261.63835 272.32023 284.4312 288.81098 304.05104 316.17085 328.53068 340.1132 351.5724 363.2738 375.63365 387.21617 405.87593 415.83558 420.45756 427.47755 439.59736 444.08943 454.7691 467.0695 479.42933 491.78916 497.5496 509.1321 527.91079 539.4933 551.6043 558.7454 563.3058 581.9655 591.9252 596.48556 607.22689 619.3379 631.21768 647.05886 652.8193 664.4018 676.7638 687.26296 698.84548 703.4653 715.5851 722.24618 726.7383 740.06039 751.6429 763.3421 774.92239 782.0635">I took courses through Codecademy to supplement my knowledge of React.</tspan></text>
<text xml:space="preserve" transform="matrix(1 0 -0 1 0 540)" font-size="22.02" font-family="Aptos"><tspan y="-105.14946" x="73.44 79.20043 83.69251 95.39174 101.15217 111.83187 123.951679 128.57147 144.17264 156.29245 163.67356 173.87322 185.45574 197.81557 202.43537 218.27655 223.55695 230.69583 242.80683 247.2989 265.95866 275.9183 280.47865 299.2595 310.842 322.953 329.973 342.0928 347.73435 354.03428 358.47349 374.31468 386.42567 398.54548 403.03755 415.39738 420.67778 431.35746 442.93778 454.81758 464.5372 476.11973 483.20137 494.78388 507.1437 511.82295 523.52438 528.0825 538.4627 548.42459 560.5356 567.61508 579.31649 589.0273 593.7066 605.2891 612.6702 619.74966 631.86947 639.25057 643.8109 650.9498 663.06088 674.5817 681.72286 686.21499 696.89468 709.01449 714.7749 724.49459 736.0771 748.4369 753.1162 760.2573 772.36837 783.95089 788.5112 800.87106 807.95046 820.07247 832.43228 838.1927 849.7752 868.5539">I also worked with my mentor, who discovered a syntax error that solved the problem </tspan><tspan y="-81.38988" x="73.44 89.278987 94.56378 101.698268 113.81807 118.31015 137.09102 148.97081 158.93047 164.21527 175.79338 180.35373 192.71356 204.23444 211.31386 223.01309 227.57344 239.69326 251.81307 258.94755 263.4396 275.79945 281.08424 291.76396 304.12379 309.871 321.57243 331.53208 336.81687 348.93669 359.61637">with movie data not displaying:</tspan></text>
<text fill="#ff0000" xml:space="preserve" transform="matrix(1 0 -0 1 0 540)" font-size="22.02" font-family="Aptos"><tspan y="-41.599737" x="149.93749">&#x00d7;</tspan></text>
<text xml:space="preserve" transform="matrix(1 0 -0 1 0 540)" font-size="22.02" font-family="Aptos"><tspan y="-41.599737" x="175.19443 181.6683 200.45137 212.33116 222.28421 227.56241 239.14273 249.52297 255.82068 274.60374 286.29637 298.64958 305.13008 323.91313 335.7929 345.74595 351.02635 362.60667 367.28593 379.0446 390.80326 395.29536">{movies.map(movie =&#x003e; {</tspan></text>
<text fill="#00b050" xml:space="preserve" transform="matrix(1 0 -0 1 0 540)" font-size="22.02" font-family="Aptos"><tspan y="-41.599737" x="505.42839">&#x2713;</tspan></text>
<text xml:space="preserve" transform="matrix(1 0 -0 1 0 540)" font-size="22.02" font-family="Aptos"><tspan y="-41.599737" x="530.92758 537.4014 556.1845 568.0643 578.01736 583.2977 594.87588 605.2561 611.55386 630.3369 642.02957 654.38278 660.8632 679.6463 691.52609 701.4791 706.7595 718.33987 723.0191 734.7778 746.53646 751.0285">{movies.map(movie =&#x003e; (</tspan></text>
</svg>
