<svg xmlns="http://www.w3.org/2000/svg" xmlns:xlink="http://www.w3.org/1999/xlink" version="1.1" width="960pt" height="540pt" viewBox="0 0 960 540">
<g id="layer_1" data-name="Background">
<path transform="matrix(1,0,0,-1,0,540)" d="M0 0H960V540H0Z" fill="#ffffff"/>
</g>
<path transform="matrix(1,0,0,-1,0,540)" d="M0 0H960V540H0Z" fill="#ffffff"/>
<text xml:space="preserve" transform="matrix(1 0 -0 1 0 540)" font-size="43.98" font-family="AptosDisplay"><tspan y="-455.705" x="73.44 96.419559 104.92969 133.64862 162.4995 175.57915 197.30527 218.48604 231.62287 253.34899 261.8811 287.3895 310.18873 332.99235 342.22816 355.59809 364.8339 387.39564 409.6495 431.18653 441.91764 450.4981 479.349 501.91075 537.07278 559.872 582.4338 604.6877 626.4138 648.6677 661.86618">4 &#x2013;Create Additional Components</tspan></text>
<path transform="matrix(1,0,0,-1,0,540)" d="M68.16 411.3H891.12V409.86H68.16Z" fill="#dddddd" fill-rule="evenodd"/>
<path transform="matrix(1,0,0,-1,0,540)" d="M66.24 410.22H213.78V418.86003H66.24Z" fill="#ffbd47" fill-rule="evenodd"/>
<text xml:space="preserve" transform="matrix(1 0 -0 1 0 540)" font-size="18" font-family="Aptos" font-weight="bold"><tspan y="-355.5763" x="73.44 86.346 96.6654 106.624797 111.96539">Goal:</tspan></text>
<text xml:space="preserve" transform="matrix(1 0 -0 1 0 540)" font-size="18" font-family="Aptos"><tspan y="-327.9823" x="73.44 80.64001 90.5994 94.14541 103.68541 113.76541 123.84541 127.62722 137.70722 143.46723 153.42662 158.82662 163.1466 167.82662 177.30722 180.78662 188.94782 193.2678 202.74842 214.68782 219.84842 223.32782 232.08841 241.56902 251.10901 256.869 266.2884 276.1884 279.97019 290.05018 299.59019 305.58418 309.36418 318.90419 328.80418 338.88417 342.60475 352.50474 362.04475 370.20597 374.52598 383.10658 392.46659 398.28599 402.606 412.5654 422.4654 426.01139 436.09138 445.63139 451.62538 455.40538 464.82478 474.78599 490.1454 500.22538 510.18659 520.0866 529.5672 539.4672 545.22726 553.9878 557.58779 567.12777 575.88656 579.6071 592.38717 601.86776 606.5477 611.2277 614.7737 624.31369 633.0742 636.7948 646.3348 656.4148 666.4948 670.2748 676.0942 685.9942 695.4748 699.1954 708.73538 718.81539 723.1354 727.81539 732.1354 737.9566 746.11599 749.6619 754.82077 764.782 770.776 774.32199 784.402 793.16256 802.6431 808.4625 817.2231 820.76907 826.46786 836.4291 840.08847 849.6284 859.70846 869.78848">To add profile view, search bar and navigation bar components as well as add the ability for users to add </tspan><tspan y="-306.3823" x="73.44 82.98 92.880008 102.96001 106.6806 112.440608 121.926609 137.28061 147.06002 155.03942 164.52542 168.12543 183.47943 193.26064 201.42005 205.74005 215.22605 223.98485 227.40665 232.80484 238.56664 248.52605 263.88005 267.42066 273.23466 283.13465 292.62065 296.94065 302.94004 306.54005 311.22004 315.54005 324.18003 329.99403 333.59403 343.55345 348.95344 352.43284 357.47285 367.01286 374.99406 384.95347 390.95286 395.27287 400.97346 410.45945 418.97883">and remove movies from their list of favorites.</tspan></text>
<text xml:space="preserve" transform="matrix(1 0 -0 1 0 540)" font-size="18" font-family="Aptos" font-weight="bold"><tspan y="-251.1763" x="73.44 86.16061 96.60061 106.55461 111.90061 117.24661 127.27261 137.71262 146.65322 156.67922">Challenge:</tspan></text>
<text xml:space="preserve" transform="matrix(1 0 -0 1 0 540)" font-size="18" font-family="Aptos"><tspan y="-223.5823" x="73.44 79.560009 83.214008 93.414608 102.89521 112.43521 118.19521 127.61461 137.5146 141.1758 151.2558 160.7958 166.78981 170.57161 175.9716 186.0516 195.9516 205.371 211.19222 215.5122 225.4716 235.3716 244.91159 249.5916 253.85219 259.6716 267.83283 271.30683 280.84684 290.74684 300.8268 304.54743 313.18745 318.94743 328.30744 334.00804 343.48863 347.38923 362.74864 372.28865 382.18864 391.72865 400.30924 409.78984 425.14924 434.62983 444.52983">- Search bar functionality and state management</tspan></text>
<text xml:space="preserve" transform="matrix(1 0 -0 1 0 540)" font-size="18" font-family="Aptos"><tspan y="-195.98831" x="73.44 79.560009 83.214008 92.394008 101.934009 109.91521 119.8746 125.86861 130.1886 135.8892 145.36801 149.0292 164.38861 174.16802 182.32921 186.6492 196.1298 204.8886 208.3626 218.4426 227.9232 233.7426 242.50319 246.82318 255.46318 261.2826 265.6026 275.5026 284.1966 287.856 297.396 302.9166 308.6172 318.09779 324.09178 327.87178 332.55177 342.03236 351.57237 359.73179 364.0536 373.95359 382.64759 386.18818 396.26817 402.02815 411.98756 417.38755 421.70756 426.38755 435.86814 439.34214 447.50157 451.82157 461.30216">- Favorite movies persisting after leaving profile view</tspan></text>
<text xml:space="preserve" transform="matrix(1 0 -0 1 0 540)" font-size="18" font-family="Aptos" font-weight="bold"><tspan y="-140.78232" x="73.44 84.186008 94.5054 99.846 110.286 116.706607 121.5126 131.83382 142.27382">Solution:</tspan></text>
<text xml:space="preserve" transform="matrix(1 0 -0 1 0 540)" font-size="18" font-family="Aptos"><tspan y="-113.18832" x="73.44 79.560009 83.214008 92.99521 102.53521 111.295818 120.05462 124.37462 134.27462 142.96862 146.56862 152.38803 162.28803 171.76863 175.42264 185.38384 195.28383 205.48442 214.96323 224.50324 230.26325 239.68445 248.68445 255.88445 265.36506 271.35905 286.72026 299.19966 309.09965 318.63966 328.53965 337.12025 346.60084 350.3196 355.7196 365.80143 375.70143 385.12083 390.94023 395.26023 405.22145 415.12144 418.60084 428.14085 438.04084 448.12083 451.8414 457.6608 467.5608 477.03959 480.69358 489.4524 498.93299 508.473 514.233 523.6542 533.5542 538.2342 548.1342 558.21426 568.29428 574.11367 577.8342 586.4742 592.2342 601.5942 607.2948 616.7754 620.6742 628.776 638.316 644.31 648.63 658.17 668.25 672.93 682.4106 686.13119 695.67117 704.42996 708.0839 718.16397 723.92398 733.88339 743.9634 752.72219 756.37619 761.7762 767.5362 777.4956 792.8568 796.3362 810.5562 820.0962 824.4162 834.3162 844.87686 849.19686 858.6774 871.63748">- Passing the onSearchTermChange function and the searchInput state variable as props from MainView </tspan><tspan y="-91.58832" x="73.44 79.1406 89.1 92.7 98.521198 108.421199 117.9 121.6206 131.8212 141.3018 150.8418 156.6018 166.02121 175.9212 186.0012 195.5412 201.5352 205.3746 214.7958 224.7552 240.11461 250.19461 260.15583 270.05583 279.5364 289.4364 295.2558 298.85578 308.39579 318.29579 328.37577 332.09635 342.17634 351.71635 361.13755 369.89634 373.73753 379.4381 389.39753 392.9975 407.2175 416.7575 421.0775 430.9775 441.53813 445.85813 455.3387 467.2781">to the Searchbar component and back to MainView.</tspan></text>
<text xml:space="preserve" transform="matrix(1 0 -0 1 0 540)" font-size="18" font-family="Aptos"><tspan y="-63.994318" x="73.44 79.560009 83.214008 95.45401 105.53401 115.61401 124.974018 130.79343 135.11342 145.01342 153.70742 157.54682 163.36623 173.26622 182.74683 186.40804 196.48804 205.24863 214.72743 220.72144 224.26744 232.90744 238.66925 248.02927 253.72808 263.20869 267.10929 275.2093 284.7493 290.7433 295.0651 304.6051 314.6851 319.36509 328.84568 332.50508 342.04508 347.56568 353.26628 362.74507 368.73905 372.51905 381.99784 391.53785 400.95726 410.85725 414.63725 424.71726 433.47789 442.95848 446.55845 456.51786 461.91786 465.39906 471.21846 481.11845 490.59904 494.3196 503.85963 513.93966 524.01968 527.7996 537.75906 543.75308 547.299 553.059 562.5396 577.899 587.6784 595.6596 605.1384 608.6844 613.7244 623.2644 631.2456 641.205 647.19906 651.51907 657.21786 666.6984 670.2984 685.6596 695.439 703.5984 707.9184 717.399 720.8801 726.28018 736.36019 746.2602 755.6796 761.50088 765.82089 775.7803 785.6803">- Updating the user state variable after each use of the add or remove favorite movie function.</tspan></text>
</svg>
